<svg id="Layer_1" xmlns="http://www.w3.org/2000/svg" viewBox="0 0 865 410"><style>.st0{fill:#e6e7e8}.st1{fill:#fff}.st2{fill:#f63}.st3{fill:#f06924}</style><path class="st0" d="M511.2 222h24.7c3.8 0 7.2.3 10.4.8 3.2.6 6 1.5 8.4 2.9 2.4 1.4 4.3 3.2 5.6 5.5 1.4 2.3 2 5.2 2 8.6 0 1.6-.2 3.3-.7 4.9-.5 1.6-1.2 3.1-2.2 4.5-1 1.4-2.2 2.7-3.8 3.8-1.5 1.1-3.4 1.9-5.4 2.4v.4c5.2 1 9 2.8 11.7 5.5 2.6 2.7 3.9 6.5 3.9 11.4 0 3.7-.7 6.9-2.2 9.5-1.4 2.7-3.4 4.8-6 6.6-2.5 1.7-5.5 3-8.9 3.9-3.4.9-7 1.3-10.9 1.3H511v-72zm23.9 29.1c4 0 6.9-.8 8.7-2.4 1.8-1.6 2.7-3.7 2.7-6.5 0-2.7-.9-4.7-2.8-5.9-1.8-1.2-4.7-1.8-8.5-1.8h-7.7V251h7.6zm1.6 30.4c8.9 0 13.4-3.3 13.4-9.8 0-3.2-1.1-5.5-3.3-6.9-2.2-1.4-5.6-2.2-10.1-2.2h-9.2v18.9h9.2zm77.3-4.6h-22l-4.4 17.1H571l22.6-72.1h19.6l22.6 72.1h-17.2l-4.6-17.1zm-3.3-12.7l-1.7-6.6c-1-3.6-2-7.4-3-11.5s-1.9-8-2.9-11.7h-.4c-.9 3.8-1.8 7.8-2.7 11.8-.9 4-1.9 7.8-2.9 11.4l-1.8 6.6h15.4zM644 222h16.7l18.8 35.8 7.1 15.9h.4c-.4-3.8-.8-8.1-1.3-12.8-.5-4.7-.7-9.2-.7-13.5V222h15.5v72.1h-16.7L665 258.2l-7.1-15.7h-.4c.4 4 .8 8.3 1.3 12.8.5 4.6.7 9 .7 13.3v25.5H644V222zm71.2 0h20.3c5.5 0 10.5.7 14.9 2.1 4.4 1.4 8.2 3.6 11.4 6.5 3.2 2.9 5.6 6.6 7.3 11.1 1.7 4.5 2.5 9.8 2.5 16 0 6.2-.8 11.6-2.5 16.1-1.7 4.6-4.1 8.3-7.2 11.3-3.1 3-6.8 5.2-11.1 6.7s-9.1 2.2-14.4 2.2h-21.2v-72zm19.3 58.9c3.1 0 5.9-.4 8.4-1.2 2.5-.8 4.6-2.1 6.4-3.9 1.8-1.8 3.2-4.2 4.2-7.1 1-3 1.5-6.6 1.5-10.9 0-4.3-.5-7.9-1.5-10.8-1-2.9-2.4-5.2-4.2-7-1.8-1.7-3.9-3-6.4-3.7-2.5-.7-5.3-1.1-8.4-1.1h-3.1V281h3.1zm48-58.9h16.3v72.1h-16.3zm46.4 13.7h-19.8V222H865v13.7h-19.8v58.4h-16.3z"/><path class="st1" d="M38.7 294.1L26.3 270H19v24.1H0v-71.9h27.2c3.8 0 7.5.4 11 1.1 3.5.7 6.6 2 9.2 3.8 2.6 1.8 4.7 4.1 6.2 7.1s2.3 6.7 2.3 11.2c0 5.2-1 9.4-3.1 12.8-2.1 3.4-4.9 6-8.5 8l15.6 27.9H38.7zM19 254.9h6.9c7.7 0 11.5-3.2 11.5-9.5 0-3.1-1-5.2-2.9-6.4-2-1.2-4.8-1.8-8.6-1.8H19v17.7zm51.2-32.7h46.4v15.9H89.2v11.3h23.5v15.9H89.2v12.9h28.5v15.9H70.2zm68.4 49.9c2.6 2.1 5.4 3.7 8.3 5 3 1.3 5.8 1.9 8.5 1.9 2.9 0 5-.4 6.2-1.3 1.3-.9 1.9-2.1 1.9-3.8 0-.9-.2-1.6-.7-2.2-.4-.6-1.1-1.1-1.9-1.7-.8-.5-1.9-1-3-1.5-1.2-.5-2.5-1-4.1-1.6l-9-3.8c-1.9-.7-3.8-1.7-5.5-2.9-1.8-1.2-3.3-2.7-4.6-4.3-1.3-1.7-2.4-3.6-3.2-5.7-.8-2.1-1.2-4.5-1.2-7.1 0-3.1.7-6 2-8.7 1.3-2.7 3.2-5 5.5-7.1 2.4-2 5.2-3.6 8.5-4.8 3.3-1.2 6.9-1.8 10.8-1.8 4.1 0 8.3.8 12.5 2.3s8 4 11.3 7.3l-9.5 11.9c-2.4-1.7-4.8-3-7-3.9-2.3-.9-4.7-1.3-7.4-1.3-2.4 0-4.2.4-5.5 1.2-1.3.8-2 2-2 3.6 0 1.7.9 3 2.8 3.9 1.9.9 4.5 2 7.8 3.3l8.7 3.4c4.5 1.8 8 4.2 10.4 7.4 2.4 3.2 3.6 7.3 3.6 12.3 0 3-.6 5.9-1.9 8.7-1.3 2.8-3.1 5.2-5.5 7.4-2.4 2.1-5.3 3.8-8.8 5-3.5 1.3-7.4 1.9-11.9 1.9-4.6 0-9.3-.8-14.1-2.5-4.8-1.7-9.2-4.3-13.1-7.8l11.1-12.7zm68-34h-19v-15.9h57.1v15.9h-19.1v56h-19zm49.2-15.9h19v56H302v15.9h-46.2zm55.7 0H358v15.9h-27.5v11.3H354v15.9h-23.5v12.9h28.6v15.9h-47.6zm68.5 49.9c2.6 2.1 5.4 3.7 8.3 5 3 1.3 5.8 1.9 8.5 1.9 2.9 0 5-.4 6.2-1.3 1.3-.9 1.9-2.1 1.9-3.8 0-.9-.2-1.6-.7-2.2-.4-.6-1.1-1.1-1.9-1.7-.8-.5-1.9-1-3-1.5-1.2-.5-2.5-1-4.1-1.6l-9-3.8c-1.9-.7-3.8-1.7-5.5-2.9-1.8-1.2-3.3-2.7-4.6-4.3-1.3-1.7-2.4-3.6-3.2-5.7-.8-2.1-1.2-4.5-1.2-7.1 0-3.1.7-6 2-8.7 1.3-2.7 3.2-5 5.5-7.1 2.4-2 5.2-3.6 8.5-4.8 3.3-1.2 6.9-1.8 10.8-1.8 4.1 0 8.3.8 12.5 2.3 4.2 1.6 8 4 11.3 7.3l-9.5 11.9c-2.4-1.7-4.8-3-7-3.9-2.3-.9-4.7-1.3-7.4-1.3-2.4 0-4.2.4-5.5 1.2-1.3.8-2 2-2 3.6 0 1.7.9 3 2.8 3.9 1.9.9 4.5 2 7.8 3.3l8.7 3.4c4.5 1.8 8 4.2 10.4 7.4 2.4 3.2 3.6 7.3 3.6 12.3 0 3-.6 5.9-1.9 8.7-1.3 2.8-3.1 5.2-5.5 7.4-2.4 2.1-5.3 3.8-8.8 5-3.5 1.3-7.4 1.9-11.9 1.9-4.6 0-9.3-.8-14.1-2.5-4.8-1.7-9.2-4.3-13.1-7.8l11.1-12.7zm60.6 0c2.6 2.1 5.4 3.7 8.3 5 3 1.3 5.8 1.9 8.5 1.9 2.9 0 5-.4 6.2-1.3 1.3-.9 1.9-2.1 1.9-3.8 0-.9-.2-1.6-.7-2.2-.4-.6-1.1-1.1-1.9-1.7-.8-.5-1.9-1-3-1.5-1.2-.5-2.5-1-4.1-1.6l-9-3.8c-1.9-.7-3.8-1.7-5.5-2.9-1.8-1.2-3.3-2.7-4.6-4.3-1.3-1.7-2.4-3.6-3.2-5.7-.8-2.1-1.2-4.5-1.2-7.1 0-3.1.7-6 2-8.7 1.3-2.7 3.2-5 5.5-7.1 2.4-2 5.2-3.6 8.5-4.8 3.3-1.2 6.9-1.8 10.8-1.8 4.1 0 8.3.8 12.5 2.3 4.2 1.6 8 4 11.3 7.3l-9.5 11.9c-2.4-1.7-4.8-3-7-3.9-2.3-.9-4.7-1.3-7.4-1.3-2.4 0-4.2.4-5.5 1.2-1.3.8-2 2-2 3.6 0 1.7.9 3 2.8 3.9 1.9.9 4.5 2 7.8 3.3l8.7 3.4c4.5 1.8 8 4.2 10.4 7.4 2.4 3.2 3.6 7.3 3.6 12.3 0 3-.6 5.9-1.9 8.7-1.3 2.8-3.1 5.2-5.5 7.4-2.4 2.1-5.3 3.8-8.8 5-3.5 1.3-7.4 1.9-11.9 1.9-4.6 0-9.3-.8-14.1-2.5-4.8-1.7-9.2-4.3-13.1-7.8l11.1-12.7z"/><path class="st2" d="M497.1 22L251.4 124.2l118.7 13.4L545.8 28.4zm79.7 79.7l47.7 19.8c6.4-6.2 88.1-86.3 118.2-116.3l-165.9 96.5zm-88.6-30.6l-49.1 30.5 58.1 36 118.6-13.4zM740 0H602.1l-93.7 17.6 164 21.7zM290.9 101.7l-47.7 19.8c-6.4-6.2-88.1-86.3-118.2-116.3l165.9 96.5zM127.7 0h137.9l93.7 17.6-164.1 21.7zm242.4 22.1l-48.7 6.4 58.1 36.1L426 45.3z"/><path class="st3" d="M422.4 400.6v-45.8H413v-6.7h26.2v6.7h-9.4v45.8h-7.4zm26.8.6c-2.1 0-3.9-.9-5.3-2.7-1.5-1.8-2.2-3.8-2.2-6.1 0-1.8.3-3.5.9-4.9.6-1.5 1.3-2.7 1.9-3.6.7-.9 1.8-1.8 3.4-2.7 1.6-.9 2.8-1.6 3.6-1.9.8-.4 2.2-.9 4.3-1.7.4-.1.6-.2.8-.3v-2.7c0-1.9-.3-3.4-.8-4.4-.5-1-1.5-1.6-3-1.6-1.3 0-2.2.4-2.8 1.3-.6.9-.9 2.1-1 3.7v1h-7.5c0-3.6 1-6.4 3-8.6 2-2.1 4.7-3.2 8.2-3.2 3.5 0 6.2 1.1 8.2 3.2 2 2.2 3 5 3 8.5v16.8c0 3.9.3 7 1 9.4h-7.5l-1-5.6c-.4.8-.7 1.4-1 1.8-.2.4-.6 1-1.1 1.6-.5.6-.9 1.1-1.4 1.5-.5.3-1.1.6-1.8.9-.3.1-1.1.3-1.9.3zm3.7-6.2c.5 0 1-.2 1.5-.5s.9-.6 1.1-.9c.3-.3.6-.7.9-1.2.1-.1.1-.2.1-.2v-10.4c-.3.2-.8.5-1.6 1-.7.4-1.3.8-1.7 1.1-.4.3-.9.7-1.6 1.2-.6.5-1.1 1-1.4 1.4-.3.5-.6 1-.9 1.7-.3.7-.4 1.4-.4 2.1.3 3.2 1.5 4.7 4 4.7zm17.7 5.6v-52.4h7.5v52.4h-7.5zm24.8.6c-1.8 0-3.4-.3-4.7-.9-1.3-.6-2.4-1.4-3.2-2.4-.8-1-1.4-2.3-1.9-3.9s-.8-3.1-1-4.7c-.2-1.6-.3-3.4-.3-5.5-.1-1.6-.1-3.3 0-4.9.1-1.9.2-3.7.4-5.2s.6-3 1.1-4.4c.5-1.4 1.2-2.6 2-3.5.8-.9 1.9-1.7 3.2-2.2 1.3-.6 2.9-.8 4.6-.8 1.6 0 3 .2 4.2.6 1.2.4 2.2 1.1 3 1.9.8.8 1.5 1.8 2 2.8.5 1 .9 2.3 1.2 3.8.3 1.5.5 2.9.6 4.3.1 1.4.2 3.1.2 4.9v.9h-15v5.3c0 .8.1 1.5.1 2.3 0 .7.1 1.4.3 2.1.2.7.4 1.3.6 1.8.3.5.6.9 1.1 1.2.5.3 1 .4 1.6.4.8 0 1.4-.1 1.9-.5.5-.3.9-.8 1.1-1.4.2-.6.4-1.2.5-1.8.1-.6.2-1.4.2-2.3v-1.6h7.4v1.5c-.2 4-1.2 7-3 9.1-1.8 2-4.5 3.1-8.2 3.1zm-3.7-23h7.4v-2.3c0-1-.1-1.9-.2-2.6-.1-.7-.3-1.5-.5-2.2-.2-.7-.6-1.3-1.1-1.7-.5-.4-1.1-.6-1.9-.6-.8 0-1.4.2-1.9.6-.5.4-.9 1-1.1 1.8-.2.8-.4 1.5-.5 2.3-.1.7-.2 1.6-.2 2.7v2zm20.4 22.4v-37.4h7.5v4c1.1-1 2-1.8 2.7-2.3.7-.5 1.7-1 2.9-1.5s2.6-.7 4-.7c1.6 0 2.9.6 3.9 1.8 1 1.2 1.5 2.6 1.5 4.3v31.9H527v-28.1c0-1.3-.2-2.3-.6-2.9-.4-.6-1.1-.9-2.3-.9-.6 0-1.3.1-1.9.4-.6.3-1.1.5-1.4.7-.3.2-.8.6-1.3 1.1v29.6h-7.4zm39.4.6c-2.9 0-5.1-.7-6.4-2.3-1.3-1.5-2-3.8-2.1-6.8v-23.3h-3.7v-5.6h3.7v-13.1h7.5v13.1h5.6v5.6h-5.6v21.9c0 1.5.2 2.6.6 3.3s1.2 1.1 2.5 1.1c.5 0 1.4-.1 2.5-.3v6.1c-1.9.1-3.4.3-4.6.3zm22.5-.6v-52.4h9.4c5.6 0 9.8 1.1 12.6 3.2 2.8 2.2 4.2 5.8 4.2 10.8 0 3.1-.6 5.7-1.7 7.8-1.1 2.1-2.7 3.6-4.9 4.3l8.4 26.2h-7.4l-7.5-24.3h-5.6v24.3H574zm7.5-29.9h1.9c3.1 0 5.5-.7 7-2 1.6-1.3 2.3-3.5 2.3-6.5s-.8-5.1-2.3-6.5c-1.6-1.3-3.9-2-7-2h-1.9v17zm35.2 30.5c-1.8 0-3.4-.3-4.7-.9-1.3-.6-2.4-1.4-3.2-2.4-.8-1-1.4-2.3-1.9-3.9s-.8-3.1-1-4.7c-.2-1.6-.3-3.4-.3-5.5-.1-1.6-.1-3.3 0-4.9.1-1.9.2-3.7.4-5.2s.6-3 1.1-4.4c.5-1.4 1.2-2.6 2-3.5.8-.9 1.9-1.7 3.2-2.2 1.3-.6 2.9-.8 4.6-.8 1.6 0 3 .2 4.2.6 1.2.4 2.2 1.1 3 1.9.8.8 1.5 1.8 2 2.8.5 1 .9 2.3 1.2 3.8.3 1.5.5 2.9.6 4.3.1 1.4.2 3.1.2 4.9v.9h-15v5.3c0 .8.1 1.5.1 2.3 0 .7.1 1.4.3 2.1.2.7.4 1.3.6 1.8.3.5.6.9 1.1 1.2.5.3 1 .4 1.6.4.8 0 1.4-.1 1.9-.5.5-.3.9-.8 1.1-1.4.2-.6.4-1.2.5-1.8.1-.6.2-1.4.2-2.3v-1.6h7.4v1.5c-.2 4-1.2 7-3 9.1-1.7 2-4.5 3.1-8.2 3.1zm-3.7-23h7.4v-2.3c0-1-.1-1.9-.2-2.6-.1-.7-.3-1.5-.5-2.2-.2-.7-.6-1.3-1.1-1.7-.5-.4-1.1-.6-1.9-.6-.8 0-1.4.2-1.9.6-.5.4-.9 1-1.1 1.8-.2.8-.4 1.5-.5 2.3-.1.7-.2 1.6-.2 2.7v2zm29.2 23c-1.7 0-3.1-.5-4.3-1.4-1.2-.9-2.2-2.2-2.9-3.8-.7-1.6-1.2-3.3-1.5-5-.3-1.7-.5-3.6-.6-5.6v-6.7c0-1.3.1-2.5.2-3.5s.2-2.1.4-3.3c.2-1.1.4-2.1.7-3 .3-.9.7-1.7 1.1-2.5.5-.8 1-1.5 1.6-2 .6-.5 1.4-.9 2.3-1.3.9-.3 1.9-.5 2.9-.5.8 0 1.6.1 2.4.3.7.2 1.4.6 2.1 1.1.7.5 1.2.9 1.6 1.3l1.6 1.6v-18.7h7.5v52.4h-7.5v-3.4c-1.1 1.2-2.3 2.1-3.5 2.8s-2.6 1.2-4.1 1.2zm1.8-6.2c1.8 0 3.7-.4 5.6-1.2v-23.5c-1.7-1-3.6-1.5-5.6-1.5-.7 0-1.4.2-1.9.5-.5.4-.9.9-1.1 1.6-.3.7-.4 1.4-.6 2.1-.1.7-.2 1.6-.2 2.6-.1 4.4-.1 7.8 0 10.4 0 1.2.1 2.4.2 3.3.1 1 .3 1.9.6 2.8.3.9.6 1.6 1.2 2.1.5.6 1.1.8 1.8.8zm20.5-37.4v-7.5h7.5v7.5h-7.5zm0 43v-37.4h7.5v37.4h-7.5zm24.4.6c-3.1 0-5.6-.9-7.4-2.7-1.9-1.8-3.1-4.2-3.8-7.1l5.6-1.9c1.3 3.7 3.2 5.6 5.6 5.6 1.2 0 2.1-.3 2.8-1 .7-.7 1-1.6 1-2.8 0-1.7-.6-3.2-1.9-4.3l-7.5-5.6c-.8-.6-1.5-1.1-2.1-1.6-.6-.5-1.1-1.1-1.7-1.8-.6-.7-1-1.5-1.3-2.4-.3-.9-.5-1.9-.5-2.9 0-3.2 1-5.6 3.1-7.3 2-1.7 4.8-2.5 8.2-2.5 1.6 0 3.1.3 4.4.8 1.3.5 2.4 1.2 3.3 2.2.9.9 1.6 2 2.2 3.1.6 1.1 1 2.4 1.4 3.8l-5.6 1.9c-.3-.7-.5-1.4-.8-1.9-.3-.5-.6-1.1-1.1-1.7-.5-.6-1-1.1-1.6-1.4-.6-.3-1.3-.5-2.1-.5-1.2 0-2.1.3-2.8 1-.7.7-1 1.6-1 2.8 0 1.2.6 2.2 1.9 3.2l7.5 5.6c.8.7 1.6 1.3 2.2 1.9.6.6 1.2 1.3 1.7 2.1.6.8 1 1.7 1.3 2.7.3 1 .4 2.1.4 3.2 0 3.2-1 5.6-3.1 7.3-2.1 1.3-4.8 2.2-8.3 2.2zm25.2 0c-1.8 0-3.4-.3-4.7-.9-1.3-.6-2.4-1.4-3.2-2.4-.8-1-1.4-2.2-1.9-3.7s-.8-3-1-4.5c-.2-1.5-.3-3.3-.3-5.3-.1-1.6-.1-3.2 0-4.9 0-2 .1-3.7.3-5.3.2-1.5.5-3 1-4.5s1.1-2.7 1.9-3.7 1.9-1.7 3.2-2.4c1.3-.6 2.9-.9 4.7-.9 3.9 0 6.8 1.1 8.5 3.2 1.7 2.1 2.6 5.3 2.7 9.4v1h-7.5v-1.1c0-.9-.1-1.8-.2-2.5s-.3-1.4-.5-2.1c-.2-.7-.6-1.2-1.1-1.6-.5-.4-1.1-.6-1.9-.6-.7 0-1.4.2-1.9.7-.5.4-.9 1.1-1.2 1.9-.3.8-.5 1.7-.6 2.5-.1.9-.2 1.9-.2 3-.1 2.4-.1 6.1 0 10.9 0 1.1.1 2 .2 2.8.1.8.3 1.6.6 2.3.3.8.6 1.3 1.2 1.7.5.4 1.1.6 1.8.6s1.2-.1 1.7-.4c.5-.3.8-.6 1.1-.9.3-.4.5-.9.6-1.5.1-.6.2-1.2.3-1.7 0-.5.1-1.2.1-2v-.9h7.5v1c-.1 2-.3 3.7-.7 5.2-.4 1.5-1.1 2.8-1.9 4-.9 1.1-2 2-3.5 2.6-1.4.7-3.1 1-5.1 1zm35-3.5c-1.7 2.3-4.6 3.5-8.6 3.5s-6.9-1.2-8.6-3.5c-1.7-2.3-2.6-5.7-2.6-10.1v-11.2c0-4.4.9-7.8 2.6-10.1 1.7-2.3 4.6-3.5 8.6-3.5s6.9 1.2 8.6 3.5c1.7 2.3 2.6 5.7 2.6 10.1v11.2c.1 4.3-.8 7.7-2.6 10.1zm-10-2.9c.4.2.9.2 1.4.2.5 0 1-.1 1.4-.2.4-.2.7-.3 1-.6.3-.2.5-.6.7-1 .2-.4.3-.8.4-1.2.1-.3.2-.8.2-1.4 0-.6.1-1.1.1-1.5v-14.4c0-.4 0-.9-.1-1.5 0-.6-.1-1.1-.2-1.4-.1-.3-.2-.7-.4-1.2-.2-.4-.4-.8-.7-1-.3-.2-.6-.4-1-.6-.4-.2-.9-.2-1.4-.2-.5 0-1 .1-1.4.2-.4.2-.7.3-1 .6-.3.2-.5.6-.7 1-.2.4-.3.8-.4 1.2-.1.3-.2.8-.2 1.4 0 .6-.1 1.1-.1 1.5v14.4c0 .4 0 .9.1 1.5 0 .6.1 1.1.2 1.4.1.3.2.7.4 1.2.2.4.4.8.7 1 .3.2.6.4 1 .6zm24.4 5.8l-8.4-37.4h7.2l5.2 28.1 4.7-28.1h7.2l-8.4 37.4h-7.5zm30.5.6c-1.8 0-3.4-.3-4.7-.9-1.3-.6-2.4-1.4-3.2-2.4-.8-1-1.4-2.3-1.9-3.9s-.8-3.1-1-4.7c-.2-1.6-.3-3.4-.3-5.5-.1-1.6-.1-3.3 0-4.9.1-1.9.2-3.7.4-5.2s.6-3 1.1-4.4c.5-1.4 1.2-2.6 2-3.5.8-.9 1.9-1.7 3.2-2.2 1.3-.6 2.9-.8 4.6-.8 1.6 0 3 .2 4.2.6 1.2.4 2.2 1.1 3 1.9.8.8 1.5 1.8 2 2.8.5 1 .9 2.3 1.2 3.8.3 1.5.5 2.9.6 4.3.1 1.4.2 3.1.2 4.9v.9h-15v5.3c0 .8.1 1.5.1 2.3 0 .7.1 1.4.3 2.1.2.7.4 1.3.6 1.8.3.5.6.9 1.1 1.2.5.3 1 .4 1.6.4.8 0 1.4-.1 1.9-.5.5-.3.9-.8 1.1-1.4.2-.6.4-1.2.5-1.8.1-.6.2-1.4.2-2.3v-1.6h7.4v1.5c-.2 4-1.2 7-3 9.1-1.7 2-4.5 3.1-8.2 3.1zm-3.7-23h7.4v-2.3c0-1-.1-1.9-.2-2.6-.1-.7-.3-1.5-.5-2.2-.2-.7-.6-1.3-1.1-1.7-.5-.4-1.1-.6-1.9-.6-.8 0-1.4.2-1.9.6-.5.4-.9 1-1.1 1.8-.2.8-.4 1.5-.5 2.3-.1.7-.2 1.6-.2 2.7v2zm20.4 22.4v-37.4h7.5v5c.8-1.5 1.9-2.8 3.3-3.9 1.5-1.1 3.1-1.7 4.8-1.7.1 0 .5 0 1.2.1v8.3c-1.4-.5-2.8-.8-4.2-.8-1.6 0-2.8.5-3.8 1.4-1 .9-1.4 2.2-1.4 3.7v25.3h-7.4zM830 410v-5.6c1.5 0 2.7-.1 3.6-.3.9-.2 1.6-.5 2-1 .4-.5.7-1 .9-1.6.1-.6.2-1.4.2-2.5l-8.5-35.7h7.5c2.9 16.1 4.5 24.8 4.7 26.2.4-2.6.9-5.4 1.4-8.3.5-2.9 1.1-6.1 1.8-9.7.7-3.5 1.2-6.3 1.5-8.2h7.5l-9.4 39.3c-.6 2.7-1.9 4.6-3.9 5.8-2 1.1-4.8 1.7-8.4 1.7h-.9z"/></svg>